#!OML:ASF H:\ManfredObstacles\Project 1\Capture day 2\Session 1\male.ASF
:FULLY-SPECIFIED
:DEGREES
192
root -4.07333 17.1959 -23.4239 -169.076 -50.6008 182.862
lowerback -5.38026 5.163 -1.95603
upperback -1.78508 6.95077 -3.02242
thorax 1.30449 3.43514 -1.56685
lowerneck -32.8257 -1.40967 0.598522
upperneck 41.4875 -5.65211 2.24877
head 24.0772 -1.99987 -0.737019
rclavicle 3.44891e-014 2.22639e-014
rhumerus -43.8734 27.6882 -96.0122
rradius 100.525
rwrist 7.28595
rhand -5.97907 1.21288
rfingers 7.12502
rthumb 19.8525 -27.7932
lclavicle 3.44891e-014 2.22639e-014
lhumerus -75.4663 -23.0566 93.8653
lradius 107.114
lwrist -15.2992
lhand -13.1788 8.85832
lfingers 7.12502
lthumb 12.9208 38.4383
rfemur 9.10275 4.79956 22.8634
rtibia 20.7175
rfoot 37.3766 -16.3562
rtoes -12.0747
lfemur -40.0911 -7.62734 -16.0353
ltibia 26.9977
lfoot 17.1965 9.14068
ltoes -1.45295
193
root -4.33738 17.1891 -23.6045 -169.436 -50.6086 183.147
lowerback -5.51059 5.20004 -1.81909
upperback -1.79699 6.99805 -2.93145
thorax 1.37032 3.45936 -1.53348
lowerneck -32.8129 -1.42668 0.490622
upperneck 41.5928 -5.68733 2.33603
head 24.1864 -2.02141 -0.681818
rclavicle -1.40441e-013 1.03368e-014
rhumerus -44.506 27.4137 -96.3111
rradius 100.292
rwrist 7.38746
rhand -5.94547 1.22579
rfingers 7.12502
rthumb 19.8848 -27.7769
lclavicle -1.40441e-013 1.03368e-014
lhumerus -75.2783 -23.032 93.9219
lradius 107.285
lwrist -15.5372
lhand -13.2604 8.58028
lfingers 7.12502
lthumb 12.8422 38.1652
rfemur 8.93255 4.56298 23.0112
rtibia 22.6396
rfoot 36.8158 -16.7924
rtoes -11.9309
lfemur -39.5298 -7.90377 -15.7434
ltibia 26.0302
lfoot 17.8997 10.0258
ltoes -1.59856
194
root -4.60084 17.1671 -23.7831 -169.801 -50.6428 183.363
lowerback -5.58554 5.21191 -1.69972
upperback -1.77886 7.01203 -2.84729
thorax 1.43459 3.46719 -1.50326
lowerneck -32.8225 -1.42679 0.42053
upperneck 41.6888 -5.70152 2.39516
head 24.2916 -2.03226 -0.643074
rclavicle -2.49475e-014 3.81667e-014
rhumerus -45.1231 27.036 -96.5597
rradius 99.9454
rwrist 7.47665
rhand -5.92252 1.17822
rfingers 7.12502
rthumb 19.9068 -27.8222
lclavicle -2.49475e-014 3.81667e-014
lhumerus -74.9599 -22.995 93.9539
lradius 107.379
lwrist -15.7993
lhand -13.3501 8.22822
lfingers 7.12502
lthumb 12.7557 37.8186
rfemur 8.66104 4.2217 23.0967
rtibia 24.8522
rfoot 35.9407 -16.9787
rtoes -12.0819
lfemur -38.9614 -7.92314 -15.7291
ltibia 25.4873
lfoot 18.514 10.6754
ltoes -1.71188
195
root -4.8634 17.1306 -23.9598 -170.131 -50.7217 183.475
lowerback -5.61441 5.18102 -1.61911
upperback -1.73817 6.97023 -2.78468
thorax 1.49367 3.4471 -1.48094
lowerneck -32.8503 -1.3879 0.439095
upperneck 41.7573 -5.67558 2.40665
head 24.368 -2.01942 -0.63517
rclavicle 1.25433e-013 -1.51076e-014
rhumerus -45.7284 26.5926 -96.7888
rradius 99.491
rwrist 7.54112
rhand -5.92948 1.05194
rfingers 7.12502
rthumb 19.9001 -27.9492
lclavicle 1.25433e-013 -1.51076e-014
lhumerus -74.5468 -22.9503 93.9491
lradius 107.421
lwrist -16.063
lhand -13.4455 7.83995
lfingers 7.12502
lthumb 12.6637 37.436
rfemur 8.28731 3.77959 23.0949
rtibia 27.3169
rfoot 34.8411 -17.1434
rtoes -12.3122
lfemur -38.3488 -7.67224 -16.0148
ltibia 25.2557
lfoot 19.03 11.0228
ltoes -1.8323
196
root -5.1248 17.0795 -24.1352 -170.409 -50.8568 183.473
lowerback -5.6058 5.10755 -1.59034
upperback -1.68416 6.87349 -2.74218
thorax 1.54108 3.39937 -1.45768
lowerneck -32.8654 -1.32635 0.496342
upperneck 41.8132 -5.62636 2.40236
head 24.4237 -1.99452 -0.635963
rclavicle -5.24792e-014 2.14687e-014
rhumerus -46.3384 26.0857 -96.9856
rradius 98.9433
rwrist 7.57775
rhand -5.97276 0.856288
rfingers 7.12502
rthumb 19.8585 -28.1492
lclavicle -5.24792e-014 2.14687e-014
lhumerus -74.0665 -22.9154 93.9238
lradius 107.412
lwrist -16.3373
lhand -13.5853 7.47631
lfingers 7.12502
lthumb 12.529 37.0807
rfemur 7.82104 3.2403 22.9982
rtibia 29.9948
rfoot 33.5963 -17.4156
rtoes -12.5438
lfemur -37.6648 -7.16806 -16.5793
ltibia 25.2304
lfoot 19.4927 10.9866
ltoes -1.99127
197
root -5.38493 17.0139 -24.3097 -170.608 -51.0519 183.347
lowerback -5.58173 4.98838 -1.62518
upperback -1.61999 6.71871 -2.72456
thorax 1.58514 3.32214 -1.43014
lowerneck -32.8757 -1.24476 0.574506
upperneck 41.8658 -5.56011 2.40214
head 24.4738 -1.96002 -0.633159
rclavicle 9.81002e-014 3.89618e-014
rhumerus -46.9549 25.5313 -97.1617
rradius 98.31
rwrist 7.61352
rhand -6.01952 0.61891
rfingers 7.12502
rthumb 19.8136 -28.3912
lclavicle 9.81002e-014 3.89618e-014
lhumerus -73.512 -22.8845 93.8671
lradius 107.347
lwrist -16.5899
lhand -13.7745 7.17545
lfingers 7.12502
lthumb 12.3465 36.7909
rfemur 7.26633 2.59048 22.7952
rtibia 32.8387
rfoot 32.2868 -17.7508
rtoes -12.7943
lfemur -36.9 -6.40997 -17.4064
ltibia 25.3513
lfoot 18.5366 11.1548
ltoes -1.60178
198
root -5.64377 16.9345 -24.4832 -170.749 -51.3179 183.124
lowerback -5.53685 4.83853 -1.70165
upperback -1.54306 6.52502 -2.71858
thorax 1.62715 3.22523 -1.39568
lowerneck -32.8382 -1.18159 0.60211
upperneck 41.8534 -5.49258 2.43887
head 24.4484 -1.92958 -0.596537
rclavicle 1.36167e-014 5.1684e-014
rhumerus -47.5761 24.8991 -97.2729
rradius 97.6133
rwrist 7.63988
rhand -6.07293 0.355866
rfingers 7.12502
rthumb 19.7622 -28.6595
lclavicle 1.36167e-014 5.1684e-014
lhumerus -72.9124 -22.9261 93.8331
lradius 107.261
lwrist -16.782
lhand -14.0031 6.96312
lfingers 7.12502
lthumb 12.1261 36.5917
rfemur 6.64342 1.84636 22.5045
rtibia 35.8001
rfoot 30.9259 -18.2454
rtoes -12.9254
lfemur -36.0524 -5.48751 -18.409
ltibia 25.6123
lfoot 17.3888 10.9525
ltoes -1.0481
199
root -5.90095 16.8425 -24.6555 -170.816 -51.642 182.793
lowerback -5.47326 4.66545 -1.83765
upperback -1.44843 6.30355 -2.70399
thorax 1.6697 3.11423 -1.32243
lowerneck -32.787 -1.15152 0.517309
upperneck 41.8155 -5.42207 2.52079
head 24.4024 -1.91168 -0.511084
rclavicle -8.64713e-014 -1.19271e-014
rhumerus -48.1968 24.2042 -97.2743
rradius 96.8585
rwrist 7.68592
rhand -6.15266 0.0967109
rfingers 7.12502
rthumb 19.6856 -28.9265
lclavicle -8.64713e-014 -1.19271e-014
lhumerus -72.2197 -22.9619 93.8545
lradius 107.094
lwrist -16.9402
lhand -14.259 6.80261
lfingers 7.12502
lthumb 11.8793 36.4456
rfemur 5.96798 1.02821 22.1247
rtibia 38.8278
rfoot 29.5989 -18.7321
rtoes -13.0911
lfemur -35.1455 -4.51391 -19.5161
ltibia 26.0546
lfoot 15.6564 10.7282
ltoes -0.0928639
200
root -6.15647 16.7396 -24.8257 -170.83 -52.0242 182.398
lowerback -5.39278 4.48102 -2.00109
upperback -1.33937 6.06848 -2.6735
thorax 1.71404 2.99637 -1.21928
lowerneck -32.736 -1.16269 0.325257
upperneck 41.7541 -5.3618 2.64028
head 24.3427 -1.91014 -0.386493
rclavicle 8.84592e-014 -2.46493e-014
rhumerus -48.8153 23.4198 -97.1514
rradius 96.0566
rwrist 7.77379
rhand -6.24987 -0.141296
rfingers 7.12502
rthumb 19.5921 -29.1741
lclavicle 8.84592e-014 -2.46493e-014
lhumerus -71.4262 -23.0401 93.9425
lradius 106.856
lwrist -17.0385
lhand -14.5048 6.67543
lfingers 7.12502
lthumb 11.6423 36.332
rfemur 5.24006 0.165503 21.6888
rtibia 41.8817
rfoot 28.3092 -19.2443
rtoes -13.1469
lfemur -34.1954 -3.66612 -20.6002
ltibia 26.7226
lfoot 13.6996 10.567
ltoes 0.994079
201
root -6.40986 16.629 -24.9935 -170.791 -52.4478 181.934
lowerback -5.29047 4.27283 -2.20766
upperback -1.21281 5.80379 -2.63574
thorax 1.76048 2.86335 -1.08751
lowerneck -32.7123 -1.17137 0.144559
upperneck 41.6918 -5.2947 2.74172
head 24.2901 -1.9054 -0.272761
rclavicle -6.76862e-014 1.90833e-014
rhumerus -49.4035 22.5707 -96.9501
rradius 95.19
rwrist 7.89616
rhand -6.36514 -0.347243
rfingers 7.12502
rthumb 19.4813 -29.3913
lclavicle -6.76862e-014 1.90833e-014
lhumerus -70.5174 -23.0824 94.0545
lradius 106.528
lwrist -17.1134
lhand -14.73 6.57124
lfingers 7.12502
lthumb 11.4251 36.24
rfemur 4.47146 -0.702898 21.2067
rtibia 44.9268
rfoot 27.0996 -19.7004
rtoes -13.225
lfemur -33.2229 -3.11873 -21.5805
ltibia 27.6528
lfoot 11.8382 10.5721
ltoes 1.9895
202
root -6.6613 16.5132 -25.1583 -170.694 -52.8943 181.408
lowerback -5.15722 4.06463 -2.42616
upperback -1.07874 5.53849 -2.61509
thorax 1.80006 2.72964 -0.968091
lowerneck -32.7131 -1.19592 -0.0377056
upperneck 41.6441 -5.26647 2.85932
head 24.2638 -1.91128 -0.161993
rclavicle 4.96962e-016 -3.89618e-014
rhumerus -49.9592 21.5883 -96.6919
rradius 94.2478
rwrist 8.06805
rhand -6.49279 -0.505719
rfingers 7.12502
rthumb 19.3586 -29.5621
lclavicle 4.96962e-016 -3.89618e-014
lhumerus -69.4953 -23.1705 94.1883
lradius 106.094
lwrist -17.1538
lhand -14.9322 6.49924
lfingers 7.12502
lthumb 11.2301 36.1787
rfemur 3.64972 -1.53773 20.6885
rtibia 47.9445
rfoot 25.9836 -20.0402
rtoes -13.2899
lfemur -32.2688 -2.95212 -22.4307
ltibia 28.8371
lfoot 10.1352 10.8591
ltoes 2.77433
203
root -6.90992 16.3948 -25.3195 -170.547 -53.3525 180.834
lowerback -4.9958 3.8343 -2.67201
upperback -0.930106 5.24395 -2.6026
thorax 1.83933 2.58075 -0.844407
lowerneck -32.7628 -1.18843 -0.116912
upperneck 41.6006 -5.22292 2.92021
head 24.2495 -1.89978 -0.0988752
rclavicle 8.97513e-014 8.74653e-015
rhumerus -50.4451 20.5504 -96.4125
rradius 93.1946
rwrist 8.26655
rhand -6.66095 -0.642505
rfingers 7.12502
rthumb 19.1969 -29.7151
lclavicle 8.97513e-014 8.74653e-015
lhumerus -68.3148 -23.2253 94.3061
lradius 105.524
lwrist -17.1559
lhand -15.0995 6.46364
lfingers 7.12502
lthumb 11.0687 36.1518
rfemur 2.7598 -2.30653 20.157
rtibia 50.9271
rfoot 24.9592 -20.2312
rtoes -13.3369
lfemur -31.355 -3.11843 -23.1729
ltibia 30.2197
lfoot 8.38181 11.6369
ltoes 3.42719
204
root -7.15488 16.2764 -25.4772 -170.352 -53.7995 180.193
lowerback -4.77977 3.5918 -2.95673
upperback -0.766308 4.9323 -2.61101
thorax 1.86482 2.42257 -0.723802
lowerneck -32.8346 -1.14473 -0.0607475
upperneck 41.5254 -5.15996 2.90818
head 24.1997 -1.86595 -0.0964719
rclavicle 1.27222e-014 2.22639e-014
rhumerus -50.8477 19.4241 -96.1248
rradius 92.0136
rwrist 8.47345
rhand -6.83145 -0.769339
rfingers 7.12502
rthumb 19.0329 -29.8581
lclavicle 1.27222e-014 2.22639e-014
lhumerus -66.9697 -23.2522 94.4031
lradius 104.79
lwrist -17.1485
lhand -15.2414 6.4382
lfingers 7.12502
lthumb 10.9319 36.1336
rfemur 1.79962 -2.98875 19.6048
rtibia 53.8824
rfoot 24.0145 -20.2118
rtoes -13.4188
lfemur -30.4687 -3.49704 -23.8714
ltibia 31.7083
lfoot 7.01027 12.4795
ltoes 3.78195
205
root -7.39513 16.1598 -25.632 -170.098 -54.2088 179.467
lowerback -4.49867 3.34811 -3.30457
upperback -0.580729 4.61814 -2.63285
thorax 1.87525 2.26205 -0.584175
lowerneck -32.916 -1.08676 0.046895
upperneck 41.4103 -5.07917 2.86469
head 24.1103 -1.81974 -0.115446
rclavicle -1.98785e-016 -5.56597e-015
rhumerus -51.1613 18.2096 -95.8042
rradius 90.6957
rwrist 8.6893
rhand -7.01085 -0.915465
rfingers 7.12502
rthumb 18.8604 -30.0211
lclavicle -1.98785e-016 -5.56597e-015
lhumerus -65.3975 -23.204 94.484
lradius 103.837
lwrist -17.1394
lhand -15.3785 6.4443
lfingers 7.12502
lthumb 10.7997 36.1467
rfemur 0.755491 -3.56375 19.0294
rtibia 56.8215
rfoot 23.0823 -20.006
rtoes -13.5728
lfemur -29.5864 -3.90764 -24.5932
ltibia 33.1961
lfoot 4.76342 14.2729
ltoes 4.47251
